<?xml version="1.0" encoding="UTF-8" standalone="no"?>
<!DOCTYPE svg PUBLIC "-//W3C//DTD SVG 1.1//EN"
 "http://www.w3.org/Graphics/SVG/1.1/DTD/svg11.dtd">
<!-- Generated by graphviz version 2.43.0 (0)
 -->
<!-- Title: main Pages: 1 -->
<svg width="499pt" height="212pt"
 viewBox="0.00 0.00 499.00 212.00" xmlns="http://www.w3.org/2000/svg" xmlns:xlink="http://www.w3.org/1999/xlink">
<g id="graph0" class="graph" transform="scale(1 1) rotate(0) translate(4 208)">
<title>main</title>
<!-- Node1 -->
<g id="Node000001" class="node">
<title>Node1</title>
<g id="a_Node000001"><a xlink:title=" ">
<polygon fill="#999999" stroke="#666666" points="41,-88 0,-88 0,-69 41,-69 41,-88"/>
<text text-anchor="middle" x="20.5" y="-76" font-family="Helvetica,sans-Serif" font-size="10.00">main</text>
</a>
</g>
</g>
<!-- Node2 -->
<g id="Node000002" class="node">
<title>Node2</title>
<g id="a_Node000002"><a xlink:href="classGame.html#a1ab78f5ed0d5ea879157357cf2fb2afa" target="_top" xlink:title="Uruchamia główną pętlę gry.">
<polygon fill="white" stroke="#666666" points="145,-88 77,-88 77,-69 145,-69 145,-88"/>
<text text-anchor="middle" x="111" y="-76" font-family="Helvetica,sans-Serif" font-size="10.00">Game::run</text>
</a>
</g>
</g>
<!-- Node1&#45;&gt;Node2 -->
<g id="edge1_Node000001_Node000002" class="edge">
<title>Node1&#45;&gt;Node2</title>
<g id="a_edge1_Node000001_Node000002"><a xlink:title=" ">
<path fill="none" stroke="#63b8ff" d="M41.14,-78.5C48.76,-78.5 57.81,-78.5 66.8,-78.5"/>
<polygon fill="#63b8ff" stroke="#63b8ff" points="66.85,-82 76.85,-78.5 66.85,-75 66.85,-82"/>
</a>
</g>
</g>
<!-- Node3 -->
<g id="Node000003" class="node">
<title>Node3</title>
<g id="a_Node000003"><a xlink:href="classGame.html#aa5abc4e07a1f5abce24e473c5567300b" target="_top" xlink:title="Obsługuje wejście od użytkownika w sposób nieblokujący.">
<polygon fill="white" stroke="#666666" points="291,-134 181,-134 181,-115 291,-115 291,-134"/>
<text text-anchor="middle" x="236" y="-122" font-family="Helvetica,sans-Serif" font-size="10.00">Game::handleInput</text>
</a>
</g>
</g>
<!-- Node2&#45;&gt;Node3 -->
<g id="edge2_Node000002_Node000003" class="edge">
<title>Node2&#45;&gt;Node3</title>
<g id="a_edge2_Node000002_Node000003"><a xlink:title=" ">
<path fill="none" stroke="#63b8ff" d="M137.49,-88.03C155.63,-94.82 180.22,-104.01 200.17,-111.48"/>
<polygon fill="#63b8ff" stroke="#63b8ff" points="198.95,-114.76 209.55,-114.98 201.41,-108.2 198.95,-114.76"/>
</a>
</g>
</g>
<!-- Node8 -->
<g id="Node000008" class="node">
<title>Node8</title>
<g id="a_Node000008"><a xlink:href="classGame.html#a15ddd769261d923827a3cdf41499c843" target="_top" xlink:title="Rysuje aktualny stan gry na konsoli.">
<polygon fill="white" stroke="#666666" points="277.5,-88 194.5,-88 194.5,-69 277.5,-69 277.5,-88"/>
<text text-anchor="middle" x="236" y="-76" font-family="Helvetica,sans-Serif" font-size="10.00">Game::render</text>
</a>
</g>
</g>
<!-- Node2&#45;&gt;Node8 -->
<g id="edge7_Node000002_Node000008" class="edge">
<title>Node2&#45;&gt;Node8</title>
<g id="a_edge7_Node000002_Node000008"><a xlink:title=" ">
<path fill="none" stroke="#63b8ff" d="M145.29,-78.5C157.19,-78.5 170.89,-78.5 183.94,-78.5"/>
<polygon fill="#63b8ff" stroke="#63b8ff" points="184.23,-82 194.23,-78.5 184.23,-75 184.23,-82"/>
</a>
</g>
</g>
<!-- Node11 -->
<g id="Node000011" class="node">
<title>Node11</title>
<g id="a_Node000011"><a xlink:href="classGame.html#a79df6376b332d63c9eca0dcee30305c3" target="_top" xlink:title="Aktualizuje logikę gry (fizykę i zasady) dla jednej klatki.">
<polygon fill="white" stroke="#666666" points="279,-33 193,-33 193,-14 279,-14 279,-33"/>
<text text-anchor="middle" x="236" y="-21" font-family="Helvetica,sans-Serif" font-size="10.00">Game::update</text>
</a>
</g>
</g>
<!-- Node2&#45;&gt;Node11 -->
<g id="edge10_Node000002_Node000011" class="edge">
<title>Node2&#45;&gt;Node11</title>
<g id="a_edge10_Node000002_Node000011"><a xlink:title=" ">
<path fill="none" stroke="#63b8ff" d="M133.42,-68.92C152.97,-60.18 182.08,-47.16 204.14,-37.3"/>
<polygon fill="#63b8ff" stroke="#63b8ff" points="205.71,-40.43 213.41,-33.16 202.85,-34.04 205.71,-40.43"/>
</a>
</g>
</g>
<!-- Node4 -->
<g id="Node000004" class="node">
<title>Node4</title>
<g id="a_Node000004"><a xlink:href="ConsoleUtils_8cpp.html#a2da36c055d23bb1f20f20bfabbb40661" target="_top" xlink:title="Pobiera ostatni wciśnięty znak z bufora klawiatury.">
<polygon fill="white" stroke="#666666" points="395.5,-204 345.5,-204 345.5,-185 395.5,-185 395.5,-204"/>
<text text-anchor="middle" x="370.5" y="-192" font-family="Helvetica,sans-Serif" font-size="10.00">getKey</text>
</a>
</g>
</g>
<!-- Node3&#45;&gt;Node4 -->
<g id="edge3_Node000003_Node000004" class="edge">
<title>Node3&#45;&gt;Node4</title>
<g id="a_edge3_Node000003_Node000004"><a xlink:title=" ">
<path fill="none" stroke="#63b8ff" d="M252.29,-134.11C269.95,-145.03 300.03,-163.06 327,-176.5 329.94,-177.97 333.03,-179.42 336.14,-180.84"/>
<polygon fill="#63b8ff" stroke="#63b8ff" points="334.88,-184.1 345.44,-184.92 337.69,-177.69 334.88,-184.1"/>
</a>
</g>
</g>
<!-- Node5 -->
<g id="Node000005" class="node">
<title>Node5</title>
<g id="a_Node000005"><a xlink:href="ConsoleUtils_8cpp.html#a0ab7dad392b17984909e6227968313e2" target="_top" xlink:title="Sprawdza, czy został wciśnięty klawisz, nie zatrzymując programu.">
<polygon fill="white" stroke="#666666" points="411,-167 330,-167 330,-148 411,-148 411,-167"/>
<text text-anchor="middle" x="370.5" y="-155" font-family="Helvetica,sans-Serif" font-size="10.00">isKeyPressed</text>
</a>
</g>
</g>
<!-- Node3&#45;&gt;Node5 -->
<g id="edge4_Node000003_Node000005" class="edge">
<title>Node3&#45;&gt;Node5</title>
<g id="a_edge4_Node000003_Node000005"><a xlink:title=" ">
<path fill="none" stroke="#63b8ff" d="M275.32,-134.04C289.74,-137.64 306.33,-141.77 321.52,-145.55"/>
<polygon fill="#63b8ff" stroke="#63b8ff" points="320.71,-148.96 331.26,-147.98 322.4,-142.16 320.71,-148.96"/>
</a>
</g>
</g>
<!-- Node7 -->
<g id="Node000007" class="node">
<title>Node7</title>
<g id="a_Node000007"><a xlink:href="classPlayer.html#ab6d36bed8e69b47b3a367eab7e4ab8de" target="_top" xlink:title="Przesuwa gracza o zadaną wartość.">
<polygon fill="white" stroke="#666666" points="411,-130 330,-130 330,-111 411,-111 411,-130"/>
<text text-anchor="middle" x="370.5" y="-118" font-family="Helvetica,sans-Serif" font-size="10.00">Player::move</text>
</a>
</g>
</g>
<!-- Node3&#45;&gt;Node7 -->
<g id="edge6_Node000003_Node000007" class="edge">
<title>Node3&#45;&gt;Node7</title>
<g id="a_edge6_Node000003_Node000007"><a xlink:title=" ">
<path fill="none" stroke="#63b8ff" d="M291.28,-122.86C300.62,-122.58 310.3,-122.29 319.52,-122.01"/>
<polygon fill="#63b8ff" stroke="#63b8ff" points="319.82,-125.5 329.71,-121.7 319.61,-118.5 319.82,-125.5"/>
</a>
</g>
</g>
<!-- Node6 -->
<g id="Node000006" class="node">
<title>Node6</title>
<g id="a_Node000006"><a xlink:href="ConsoleUtils_8cpp.html#a97e9b1fe8d4c010474637a654aad6566" target="_top" xlink:title="Sprawdza w sposób nieblokujący, czy naciśnięto klawisz klawiatury.">
<polygon fill="white" stroke="#666666" points="491,-167 450,-167 450,-148 491,-148 491,-167"/>
<text text-anchor="middle" x="470.5" y="-155" font-family="Helvetica,sans-Serif" font-size="10.00">kbhit</text>
</a>
</g>
</g>
<!-- Node5&#45;&gt;Node6 -->
<g id="edge5_Node000005_Node000006" class="edge">
<title>Node5&#45;&gt;Node6</title>
<g id="a_edge5_Node000005_Node000006"><a xlink:title=" ">
<path fill="none" stroke="#63b8ff" d="M411.08,-157.5C420.7,-157.5 430.83,-157.5 439.89,-157.5"/>
<polygon fill="#63b8ff" stroke="#63b8ff" points="439.96,-161 449.96,-157.5 439.96,-154 439.96,-161"/>
</a>
</g>
</g>
<!-- Node9 -->
<g id="Node000009" class="node">
<title>Node9</title>
<g id="a_Node000009"><a xlink:href="ConsoleUtils_8cpp.html#a9d7e8af417b6d543da691e9c0e2f6f9f" target="_top" xlink:title="Czyści zawartość ekranu konsoli.">
<polygon fill="white" stroke="#666666" points="407.5,-93 333.5,-93 333.5,-74 407.5,-74 407.5,-93"/>
<text text-anchor="middle" x="370.5" y="-81" font-family="Helvetica,sans-Serif" font-size="10.00">clearScreen</text>
</a>
</g>
</g>
<!-- Node8&#45;&gt;Node9 -->
<g id="edge8_Node000008_Node000009" class="edge">
<title>Node8&#45;&gt;Node9</title>
<g id="a_edge8_Node000008_Node000009"><a xlink:title=" ">
<path fill="none" stroke="#63b8ff" d="M277.84,-80.04C292.03,-80.58 308.06,-81.18 322.7,-81.73"/>
<polygon fill="#63b8ff" stroke="#63b8ff" points="322.94,-85.25 333.07,-82.13 323.21,-78.25 322.94,-85.25"/>
</a>
</g>
</g>
<!-- Node10 -->
<g id="Node000010" class="node">
<title>Node10</title>
<g id="a_Node000010"><a xlink:href="classEntity.html#a11ecc09a536bb83884eb75960154dbb9" target="_top" xlink:title="Rysuje obiekt na wirtualnym buforze ekranu.">
<polygon fill="white" stroke="#666666" points="407.5,-56 333.5,-56 333.5,-37 407.5,-37 407.5,-56"/>
<text text-anchor="middle" x="370.5" y="-44" font-family="Helvetica,sans-Serif" font-size="10.00">Entity::draw</text>
</a>
</g>
</g>
<!-- Node8&#45;&gt;Node10 -->
<g id="edge9_Node000008_Node000010" class="edge">
<title>Node8&#45;&gt;Node10</title>
<g id="a_edge9_Node000008_Node000010"><a xlink:title=" ">
<path fill="none" stroke="#63b8ff" d="M276.4,-68.99C291.16,-65.42 308.07,-61.33 323.4,-57.63"/>
<polygon fill="#63b8ff" stroke="#63b8ff" points="324.3,-61.02 333.2,-55.27 322.66,-54.21 324.3,-61.02"/>
</a>
</g>
</g>
<!-- Node12 -->
<g id="Node000012" class="node">
<title>Node12</title>
<g id="a_Node000012"><a xlink:href="classPlayer.html#a6912bb6e48efb5845d59f0f4582827ef" target="_top" xlink:title="Aktualizuje stan gracza.">
<polygon fill="white" stroke="#666666" points="414,-19 327,-19 327,0 414,0 414,-19"/>
<text text-anchor="middle" x="370.5" y="-7" font-family="Helvetica,sans-Serif" font-size="10.00">Player::update</text>
</a>
</g>
</g>
<!-- Node11&#45;&gt;Node12 -->
<g id="edge11_Node000011_Node000012" class="edge">
<title>Node11&#45;&gt;Node12</title>
<g id="a_edge11_Node000011_Node000012"><a xlink:title=" ">
<path fill="none" stroke="#63b8ff" d="M279.29,-19.03C291.12,-17.78 304.13,-16.41 316.5,-15.1"/>
<polygon fill="#63b8ff" stroke="#63b8ff" points="317.13,-18.55 326.7,-14.02 316.39,-11.59 317.13,-18.55"/>
</a>
</g>
</g>
</g>
</svg>
